<svg width="97" height="90" viewBox="0 0 97 90" fill="none" xmlns="http://www.w3.org/2000/svg">
<path d="M48.8495 33.0981C48.9111 32.9673 49.0889 32.9673 49.1505 33.0981L49.9475 34.7913C49.972 34.8432 50.0192 34.8792 50.0739 34.8875L51.8561 35.159C51.9938 35.18 52.0487 35.3574 51.9491 35.4592L50.6595 36.7772C50.62 36.8176 50.6019 36.8758 50.6113 36.9329L50.9157 38.7939C50.9392 38.9376 50.7953 39.0473 50.6721 38.9794L49.0781 38.1008C49.0292 38.0738 48.9708 38.0738 48.9219 38.1008L47.3279 38.9794C47.2047 39.0473 47.0608 38.9376 47.0843 38.7939L47.3887 36.9329C47.3981 36.8758 47.38 36.8176 47.3405 36.7772L46.0509 35.4592C45.9513 35.3574 46.0062 35.18 46.1439 35.159L47.9261 34.8875C47.9808 34.8792 48.028 34.8432 48.0525 34.7913L48.8495 33.0981Z" fill="white"/>
<path d="M41.3746 34.0817C41.4259 33.9728 41.5741 33.9728 41.6254 34.0817L42.2896 35.4927C42.31 35.536 42.3494 35.566 42.3949 35.5729L43.8801 35.7992C43.9948 35.8167 44.0406 35.9645 43.9576 36.0493L42.8829 37.1476C42.85 37.1813 42.8349 37.2299 42.8427 37.2774L43.0964 38.8282C43.116 38.948 42.9961 39.0394 42.8935 38.9828L41.5651 38.2506C41.5243 38.2282 41.4757 38.2282 41.4349 38.2506L40.1065 38.9828C40.0039 39.0394 39.884 38.948 39.9036 38.8282L40.1573 37.2774C40.1651 37.2299 40.15 37.1813 40.1171 37.1476L39.0424 36.0493C38.9594 35.9645 39.0052 35.8167 39.1199 35.7992L40.6051 35.5729C40.6506 35.566 40.69 35.536 40.7104 35.4927L41.3746 34.0817Z" fill="white"/>
<path d="M56.3746 34.0817C56.4259 33.9728 56.5741 33.9728 56.6254 34.0817L57.2896 35.4927C57.31 35.536 57.3494 35.566 57.3949 35.5729L58.8801 35.7992C58.9948 35.8167 59.0406 35.9645 58.9576 36.0493L57.8829 37.1476C57.85 37.1813 57.8349 37.2299 57.8427 37.2774L58.0964 38.8282C58.116 38.948 57.9961 39.0394 57.8935 38.9828L56.5651 38.2506C56.5243 38.2282 56.4757 38.2282 56.4349 38.2506L55.1065 38.9828C55.0039 39.0394 54.884 38.948 54.9036 38.8282L55.1573 37.2774C55.1651 37.2299 55.15 37.1813 55.1171 37.1476L54.0424 36.0493C53.9594 35.9645 54.0052 35.8167 54.1199 35.7992L55.6051 35.5729C55.6506 35.566 55.69 35.536 55.7104 35.4927L56.3746 34.0817Z" fill="white"/>
<path d="M34.1194 35.0654C34.1604 34.9782 34.279 34.9782 34.3201 35.0654L34.8514 36.1942C34.8677 36.2288 34.8992 36.2528 34.9357 36.2584L36.1238 36.4394C36.2156 36.4533 36.2522 36.5716 36.1858 36.6395L35.3261 37.5181C35.2997 37.5451 35.2877 37.5839 35.2939 37.6219L35.4969 38.8626C35.5125 38.9584 35.4166 39.0315 35.3345 38.9863L34.2718 38.4005C34.2392 38.3825 34.2003 38.3825 34.1677 38.4005L33.105 38.9863C33.0229 39.0315 32.9269 38.9584 32.9426 38.8626L33.1456 37.6219C33.1518 37.5839 33.1398 37.5451 33.1134 37.5181L32.2536 36.6395C32.1872 36.5716 32.2239 36.4533 32.3157 36.4394L33.5038 36.2584C33.5402 36.2528 33.5717 36.2288 33.588 36.1942L34.1194 35.0654Z" fill="white"/>
<path d="M62.8997 35.0654C62.9407 34.9782 63.0593 34.9782 63.1003 35.0654L63.6317 36.1942C63.648 36.2288 63.6795 36.2528 63.7159 36.2584L64.9041 36.4394C64.9959 36.4533 65.0325 36.5716 64.9661 36.6395L64.1063 37.5181C64.08 37.5451 64.0679 37.5839 64.0742 37.6219L64.2771 38.8626C64.2928 38.9584 64.1969 39.0315 64.1148 38.9863L63.0521 38.4005C63.0195 38.3825 62.9805 38.3825 62.9479 38.4005L61.8852 38.9863C61.8031 39.0315 61.7072 38.9584 61.7229 38.8626L61.9258 37.6219C61.9321 37.5839 61.92 37.5451 61.8937 37.5181L61.0339 36.6395C60.9675 36.5716 61.0041 36.4533 61.0959 36.4394L62.2841 36.2584C62.3205 36.2528 62.352 36.2288 62.3683 36.1942L62.8997 35.0654Z" fill="white"/>
<path d="M28.2535 20.9186C27.6958 17.8403 27.6044 16.7901 30.4814 15.1604C31.1542 14.7802 31.6068 13.7306 31.7838 13.0697C33.1471 7.99039 35.5136 5.37275 40.5239 5.25504C41.5154 5.22788 42.3466 5.26361 42.9574 4.46686C48.7733 -3.11131 58.8274 0.483016 61.8282 6.32282C62.262 7.16484 63.5123 6.67585 64.4063 6.76639C64.9817 6.82072 65.5419 7.38004 66.0996 7.56112C71.7682 10.8372 72.3203 12.3463 71.5842 18.3095C70.8229 19.242 70.4747 20.8696 69.4124 21.5487C68.3679 22.1553 67.0281 23.0079 65.9039 22.7634C63.8944 22.3288 63.1154 24.6117 62.1417 26.0513C60.2296 28.8671 59.8578 28.8852 56.7242 27.8802C50.749 25.9517 44.9154 26.9024 39.1615 28.9667C38.6747 29.1387 38.179 29.3017 37.7275 29.5371C36.081 30.4244 34.9302 29.9536 34.1335 28.2876C33.8414 27.681 33.5493 27.0744 33.1952 26.504C33.0978 26.2867 33.0536 26.0513 33.0536 25.8069C33.4962 24.4216 33.8753 25.6439 34.5746 26.1147C35.4614 27.8802 35.8323 28.3963 37.2221 27.8802C43.0026 25.7163 49.8908 24.1319 55.9103 25.8069C56.6981 26.0242 59.6282 26.4587 60.3098 25.8069C60.8941 25.2455 61.9876 23.2915 61.8282 22.377C61.66 21.3902 59.2572 19.511 58.3631 19.5291C55.2206 19.6106 51.4548 18.7324 48.0821 19.5291C43.5055 20.6156 41.3831 20.5816 37.0279 22.3924C35.7443 22.9266 33.5252 24.6932 32.1266 24.4307C30.2233 23.9236 28.6961 22.992 28.2535 20.9186Z" fill="white"/>
<path d="M69.7547 55.0056C70.0291 53.2944 67.8515 52.5701 68.1967 50.5329C69.6662 51.1758 70.6222 52.1536 71.1799 53.566C71.3392 53.9734 71.295 54.4805 71.4809 54.8698C73.1185 58.256 75.1191 58.8264 78.1731 56.6715C83.9093 52.6063 89.433 48.2423 94.5496 43.3894C96.8334 41.2255 96.7626 40.972 94.7709 38.6632C92.9296 36.5265 91.2212 34.2449 89.2825 32.2077C87.4678 30.3064 86.9633 30.4513 85.184 32.3526C78.4298 39.5867 71.2507 46.35 63.5228 52.4886C61.0265 54.4714 60.0085 55.5579 59.0879 57.5407C60.3803 57.758 61.6285 57.9662 62.8855 58.1745C63.1245 58.6634 62.8146 58.8626 62.4517 59.0346C60.9203 58.8897 59.3977 58.7268 57.8663 58.6C57.4768 58.5638 57.0696 58.5185 57.0165 58.0839C56.9899 57.8848 57.2644 57.5679 57.4768 57.423C58.9463 56.409 59.5216 54.5348 61.0619 53.566C61.3983 53.3578 61.7524 52.8598 61.3363 52.4433C60.938 52.045 60.5573 52.4614 60.1767 52.6878C55.7241 55.3859 51.7141 58.428 48.607 62.9097C44.6855 68.5594 38.5952 71.2665 32.2039 73.0592C29.2296 73.8922 26.1668 74.3992 23.8121 76.6898C23.5466 76.9433 23.219 77.2783 22.8738 76.9977C22.4666 76.6627 22.6171 76.1647 22.8561 75.7754C23.998 73.9374 25.8958 73.5662 27.8521 73.0592C30.7025 72.3168 34.0098 71.9269 36.4087 70.0618C36.692 69.8445 36.4884 68.8672 36.5061 68.4145C36.4707 68.3511 36.4441 68.2515 36.4087 68.2425C32.4607 67.6721 30.9558 64.7024 29.8935 61.2981C30.0086 60.9903 30.1591 60.7186 30.5397 60.7368C31.1089 62.9097 31.8872 61.3279 31.4003 63.4284C31.6836 63.7906 32.2128 64.7839 33.16 65.0464C35.4261 66.7033 37.8582 69.6911 40.5404 68.2425C41.8329 67.5363 43.7206 65.286 44.9953 64.5436C46.8808 63.448 46.6506 61.5147 44.9953 60.0932C42.0741 57.5853 39.7145 54.9953 36.7491 52.5417C35.8373 51.7811 33.0715 51.092 33.16 49.5438C34.3019 49.5257 36.5238 50.714 37.2231 51.4927C40.4895 55.1324 44.6766 57.8395 47.4296 61.9953C48.0139 62.8735 48.3591 62.113 48.5184 61.7689C50.1826 57.9753 53.9448 56.409 56.627 53.6928C57.7689 52.5429 59.5925 52.4343 60.7786 51.2482C60.9026 51.1305 61.2921 51.0762 61.3806 51.1667C62.8943 52.724 63.8415 51.2301 64.7975 50.4334C71.7996 44.6026 78.4829 38.4097 84.7414 31.755C86.7597 29.6092 87.6095 29.4101 89.6278 31.5377C92.0178 34.0638 94.2486 36.7619 96.4351 39.4781C97.6478 40.9901 96.6918 42.2667 95.5941 43.3984C91.4867 47.6176 86.857 51.1758 82.2185 54.7249C80.811 55.8023 79.377 56.8526 77.9164 57.8576C75.3227 59.6322 74.3136 59.5235 72.251 57.1423C71.5163 56.2913 70.7462 55.5307 69.7724 55.0056H69.7547Z" fill="white"/>
<path d="M55.8831 71.7287C53.9268 72.8333 51.9528 72.779 50.0318 71.7106C49.1909 71.2398 48.8545 71.7649 48.3853 72.2357C47.8365 72.788 48.1995 73.1592 48.5978 73.5304C52.5547 77.2063 56.1929 81.2353 60.38 84.6577C61.2829 85.4002 62.3363 85.9525 63.3189 86.5862C63.4074 87.0118 63.3189 87.2472 62.832 87.0661C59.8931 85.8619 57.7775 83.526 55.5202 81.4074C53.1478 79.171 50.802 76.8894 48.5447 74.5354C47.5621 73.5123 46.9779 73.5123 45.8625 74.4449C41.5426 78.0574 37.8867 82.3943 33.4783 85.9253C30.1588 88.5872 26.1488 88.7592 22.422 89.9271C21.0942 90.3436 20.271 88.8859 19.607 87.7904C17.7924 84.8207 17.0222 81.4526 16.0131 78.1661C15.7387 77.2788 15.8803 76.1923 14.4108 75.8392C13.4637 75.6128 13.7469 74.1099 13.9859 73.2135C14.2869 72.118 14.8003 72.788 15.4111 73.1139C15.8714 73.3675 16.1636 72.5617 16.4911 72.1814C17.5002 71.0225 18.4297 69.764 20.0408 69.4109C20.51 69.1845 20.5631 69.429 20.4923 69.8274C20.0585 70.099 19.5982 70.3344 19.1999 70.6422C16.7478 72.5164 15.3138 74.5445 16.7035 78.0212C17.8897 80.9818 18.4828 84.1869 20.0851 86.9937C21.0588 88.7049 21.9883 89.4835 24.2898 88.6505C27.1579 87.6093 30.2031 87.22 32.8144 85.3368C36.435 82.7202 39.3119 79.2978 42.5518 76.2738C44.5789 74.3815 47.1903 73.0687 48.4916 70.3887C48.7571 69.8455 49.244 70.0447 49.5892 70.3887C51.3065 72.1271 53.3425 71.6834 55.3697 71.285C55.529 71.439 55.8034 71.4661 55.8565 71.7377L55.8831 71.7287Z" fill="white"/>
<path d="M82.2362 17.985C81.3244 19.9769 80.5277 22.0683 78.2881 22.9556C77.3056 23.2544 76.323 23.5441 75.4555 22.6568C74.4817 19.4698 75.1368 17.0162 77.4826 15.0425C78.6599 14.0465 80.1737 13.6663 81.351 14.4268C82.4044 15.1058 82.8647 16.5545 82.2273 17.9759L82.2362 17.985Z" fill="white"/>
<path d="M34.3814 50.0351C33.806 51.1668 32.8234 50.1799 32.0887 50.4425C32.0444 51.3026 32.6198 51.6376 33.1952 51.9907C33.6289 52.2623 34.1247 52.4887 34.4433 52.8689C35.0541 53.5842 35.904 54.381 35.5322 55.3859C35.0896 56.6082 33.8237 56.1827 32.8588 56.3185C32.5933 56.0107 31.9913 56.2642 31.8851 55.7028C32.1329 54.7793 33.1775 55.1596 33.7175 54.4987C33.2218 53.4665 32.1861 52.9685 31.3805 52.2714C24.5998 46.3501 17.8898 40.3292 10.9852 34.5528C8.34724 32.3436 5.33752 31.574 2.07108 31.3748C1.67273 31.1123 1.41602 30.7863 1.56651 30.2612C7.23188 29.3739 11.1268 32.8325 15.0129 36.1282C19.8639 40.2477 24.5821 44.5212 29.3622 48.7222C30.0438 49.3198 30.5661 50.0984 31.6726 49.0753C32.8411 47.9979 33.6201 49.2111 34.3637 50.026L34.3814 50.0351Z" fill="white"/>
<path d="M55.8834 71.7291C55.724 71.5751 55.5558 71.4303 55.3965 71.2764C56.2374 71.0138 57.0695 70.715 57.9282 70.5068C59.1055 70.2261 60.3537 69.9183 60.6192 68.5421C60.9202 67.0301 59.2295 67.4013 58.3708 66.6951C59.2649 65.9074 60.2652 66.5592 60.9556 66.0703C61.3628 65.7806 61.9648 65.5724 61.8231 64.9114C61.6992 64.2958 61.115 64.5493 60.7255 64.4949C59.9553 64.3772 59.079 64.5945 58.477 63.5714C59.4154 62.8652 60.3891 63.2364 61.3451 63.3904C61.9559 63.49 62.6552 63.4809 62.7172 62.7023C62.788 61.7788 62.1418 61.7335 61.3805 61.7969C60.6458 61.8512 59.8049 62.0323 58.9993 61.2627C59.9996 60.5474 60.9468 61.0092 61.832 60.9548C62.4605 60.9186 63.3191 61.0725 63.5227 60.2758C63.6998 59.5786 62.9031 59.3704 62.4516 59.0173C62.5933 58.7276 62.7349 58.4469 62.8854 58.1572C63.7264 57.3514 64.5053 56.4641 65.4348 55.776C65.9925 55.3595 66.683 54.5809 67.5151 55.45C66.5148 56.0385 65.4348 56.4731 64.6558 57.4329C64.1335 58.0757 63.567 58.4469 64.2221 59.4881C65.0984 60.8915 63.1687 61.8421 63.266 63.327C63.3014 63.8159 62.8323 64.8662 62.4516 65.4547C61.6992 66.6317 61.7435 67.9807 61.2832 69.0944C60.5573 70.8508 61.3274 70.878 62.4959 71.1768C65.1073 71.8558 67.8957 71.7291 70.3477 73.0872C70.4097 73.4946 70.2858 73.7028 69.852 73.5942C65.2401 72.6254 60.7432 70.7693 55.8922 71.7291H55.8834Z" fill="white"/>
<path d="M1.58429 30.2617C1.72592 30.5062 1.86756 30.7416 2.00919 30.986C1.70822 31.8643 1.98263 32.5886 2.55802 33.2586C6.36444 37.6316 10.1886 41.9866 14.5792 45.7711C16.5975 47.5186 18.3148 49.5829 20.4128 51.2488C21.3423 51.9822 21.9265 52.0999 22.8383 51.2578C23.9448 50.2347 25.2106 49.4108 26.7775 50.4702C26.8483 51.2488 26.2818 51.3393 25.7418 51.4661C24.3608 51.3393 23.6084 52.3443 22.8471 53.2407C22.1124 54.1098 21.4485 54.1551 20.6252 53.3946C13.6675 46.9482 6.54149 40.6647 0.76104 33.0051C-0.354329 31.5293 -0.372034 30.6601 1.57544 30.2708L1.58429 30.2617Z" fill="white"/>
<path d="M19.2266 10.7864C21.9619 12.8326 22.555 16.3274 24.4937 18.9078C24.6087 19.0074 24.6707 19.1251 24.6707 19.2518C24.6707 19.3877 24.653 19.4601 24.6264 19.4601C23.3075 21.2075 21.1741 21.787 19.5542 23.1088C18.1024 22.294 18.2086 20.5647 17.4562 19.3514C16.4117 18.0024 15.6946 16.4451 14.8979 14.9331C14.6766 14.5076 14.3403 13.9191 14.8537 13.5026C15.4822 12.9956 15.9513 13.5297 16.3143 13.9824C17.3942 15.3224 17.9254 16.9884 18.784 18.4551C19.0762 18.9531 19.3063 19.5144 20.165 20.0305C19.4656 18.4008 18.7929 17.1061 18.1113 15.8113C17.7306 15.0961 17.2438 14.3899 17.7483 13.5207C18.8903 13.1042 19.2797 14.0368 19.7489 14.743C20.5633 15.9562 21.2007 17.2871 22.1921 18.4189C21.6433 16.7982 20.7315 15.3677 19.9968 13.8376C19.5453 12.8869 18.6158 12.0177 19.2266 10.7773V10.7864Z" fill="white"/>
<path d="M78.315 72.8059C78.5717 73.6117 79.6693 73.8562 79.6074 74.8702C79.4038 75.5312 79.811 76.2012 79.5808 76.8621C78.7487 77.2062 78.5097 77.8943 78.2707 78.7544C77.4209 81.8689 76.2878 84.8658 74.5617 87.6182C73.8181 88.8043 72.8089 89.7278 71.4988 89.2841C68.6573 88.3244 65.5856 88.3335 62.8237 87.0659C62.9831 86.9029 63.1513 86.749 63.3106 86.5861C65.9308 87.2289 68.6484 87.3375 71.189 88.4512C72.747 89.1393 73.6676 87.7721 74.2341 86.5589C76.1108 82.5118 78.2176 78.5099 77.9166 73.7928C77.8989 73.4759 78.1645 73.1319 78.3061 72.7969L78.315 72.8059Z" fill="white"/>
<path d="M69.9673 32.8592C70.1443 31.0936 71.6315 29.9981 72.1715 28.4227C73.5701 26.6029 74.9245 24.7468 75.6681 22.5195C76.4825 23.0628 77.4031 22.8998 78.2971 22.9541C74.6412 24.3484 74.234 28.1601 72.5521 31.0121C72.1803 31.6369 71.9148 32.325 71.4633 32.9044C70.9499 33.5473 70.4453 33.7012 69.9673 32.8592Z" fill="white"/>
<path d="M20.5013 69.8172C20.3508 69.6814 20.2003 69.5366 20.0498 69.4007C21.5989 68.0789 23.688 69.0929 25.3257 68.1332C25.485 67.7077 25.9276 67.9521 26.1843 67.7529C27.2466 68.0879 27.6981 68.8303 27.6184 69.944C27.5741 70.5597 27.5299 71.2568 26.9368 71.4832C26.1224 71.8091 26.0339 71.0305 25.8568 70.4782C25.4142 69.0929 24.2634 69.3826 23.2897 69.4189C22.3514 69.4551 21.4307 69.6724 20.5013 69.8172Z" fill="white"/>
<path d="M70.4451 67.2286C72.7909 68.2789 75.5882 68.3875 77.2967 70.7416C77.757 71.3844 78.5271 71.8643 78.3235 72.8421C76.9603 72.5252 76.739 70.9951 75.6856 70.2979C73.3663 68.7588 70.8346 68.3875 68.1613 68.5052C67.94 67.6994 68.8075 67.6451 69.0465 67.1653C69.2147 67.0657 69.3829 66.957 69.5511 66.8574C69.8255 67.0385 70.2504 66.8393 70.4451 67.2286Z" fill="white"/>
<path d="M31.8671 55.8208C32.2035 55.9928 32.5399 56.1558 32.8763 56.3278C31.9557 56.5179 31.0262 56.7171 30.1056 56.9073C29.5656 57.0159 29.061 57.2694 29.1495 57.8941C29.2292 58.4826 29.778 58.6185 30.3092 58.709C31.2829 58.881 32.3452 58.3378 33.2481 59.0802C32.0884 59.4061 30.8668 59.3156 29.7072 59.6235C28.1758 58.7362 27.6978 57.6225 29.2823 56.4002C30.1144 55.7574 29.5921 55.4948 29.2115 55.0693C28.2378 53.9919 26.9985 53.168 26.2549 51.8642C26.4319 51.4025 26.724 51.167 27.2286 51.2938C28.6273 52.9597 30.3711 54.2635 31.876 55.8208H31.8671Z" fill="white"/>
<path d="M70.4453 67.2285C70.1444 67.1017 69.8522 66.984 69.5513 66.8573C72.7203 66.0153 75.8983 66.0062 79.0939 66.6943C80.2446 66.9388 81.3954 67.2376 81.8911 68.5413C81.7141 68.7134 81.5194 68.7405 81.3158 68.6228C78.8283 66.64 75.9071 66.9116 73.0302 66.984C72.1715 67.0022 71.304 67.147 70.4453 67.2285Z" fill="white"/>
<path d="M26.1845 67.7534C25.9012 67.8802 25.6091 68.0069 25.3259 68.1337C22.3161 67.0019 19.2621 66.9114 16.155 67.6629C15.7124 67.8892 15.3052 68.0522 15.2964 67.2736C18.97 66.2595 22.6083 66.2686 26.1845 67.7534Z" fill="white"/>
<path d="M81.3158 68.6137C81.5105 68.5866 81.7053 68.5594 81.8912 68.5322C82.9003 70.9677 81.4574 72.8962 80.6253 74.9515C80.3066 74.9153 80.2712 74.5893 80.103 74.4082C80.3863 72.4526 81.6699 70.7052 81.3158 68.6047V68.6137Z" fill="white"/>
<path d="M69.8433 73.6027C70.0115 73.4307 70.1797 73.2677 70.339 73.0957C72.0475 74.1097 72.3662 75.8119 72.6317 78.0844C71.0649 76.6267 71.1534 74.6349 69.8345 73.6118L69.8433 73.6027Z" fill="white"/>
<path d="M69.0468 67.165C69.1265 67.8712 68.498 68.0885 68.1616 68.505C66.7541 68.6137 66.0194 70.1347 64.0542 70.506C65.4263 68.2425 67.3472 67.8803 69.0468 67.165Z" fill="white"/>
<path d="M15.3053 67.2744C15.5886 67.4012 15.8719 67.537 16.164 67.6637C14.7034 68.3609 13.4995 69.4021 12.269 70.4976C12.6939 68.8679 13.7208 67.8177 15.3142 67.2744H15.3053Z" fill="white"/>
<path d="M69.9584 32.8695C71.7553 33.6209 71.4632 31.3031 72.552 31.0225C72.5874 31.8735 72.074 32.5164 71.7465 33.2226C71.534 33.6843 71.2773 34.2004 70.6665 34.0555C70.1088 33.9197 69.9495 33.4127 69.9584 32.8604V32.8695Z" fill="white"/>
<path d="M29.6987 59.6237C30.7521 58.5825 32.0623 59.2977 33.2396 59.0804C32.6553 60.3752 30.4423 58.7726 30.2741 60.8098C30.1413 60.9637 30.0174 61.1176 29.8846 61.2715C29.8227 60.7192 29.7607 60.176 29.6987 59.6237Z" fill="white"/>
<path d="M80.1027 74.417C80.2797 74.5981 80.4567 74.7791 80.6249 74.9602C80.324 75.6212 80.3948 76.4994 79.5715 76.8616C79.1909 76.1916 78.9342 75.5216 79.5981 74.8697C80.2531 75.2862 79.9168 74.5437 80.1027 74.417Z" fill="white"/>
<path d="M27.0606 51.3566C26.7862 51.5286 26.5118 51.6916 26.2374 51.8636C26.078 51.7278 25.9187 51.592 25.7505 51.4562C26.0692 51.1302 26.379 50.7952 26.6977 50.4693C26.9013 49.7631 27.3262 49.3285 28.0875 49.3919C28.4327 49.419 28.592 49.6997 28.5212 49.9985C28.3353 50.7681 27.8927 51.2932 27.0606 51.3475V51.3566Z" fill="white"/>
<path d="M40.5427 16.1921C40.4188 16.5271 40.286 16.7172 40.3302 16.7806C42.0564 19.2614 40.286 19.7232 38.4713 20.2936C36.931 20.7734 35.4881 21.5973 33.9301 22.0048C30.9735 22.7743 28.787 20.71 29.5837 18.0391C29.805 17.2967 30.1768 16.5543 30.8761 16.3008C31.7702 15.9839 31.7614 17.0885 32.2305 17.4778C32.4961 17.7041 32.7617 17.9305 33.2308 18.3379C33.2308 16.7625 33.1511 15.4497 33.2485 14.155C33.4698 11.0042 34.7799 8.53247 37.7189 7.21059C40.1886 6.09696 41.0827 6.4229 42.5256 9.04855C44.4022 3.06388 48.1555 0.229991 54.2192 1.51565C58.5656 2.43916 60.8849 5.20967 61.6373 10.1079C62.7438 9.99921 62.6642 8.07072 64.1956 8.47815C66.3201 9.03949 68.241 9.87246 69.6308 11.6561C71.6756 14.2998 71.2596 18.1659 68.7721 20.1396C66.6388 21.8327 63.5759 21.4615 61.8144 19.3701C61.2921 18.7453 61.2744 18.2474 61.6639 17.5683C62.1153 16.7897 62.3898 15.9386 62.2304 14.9789C61.3629 14.8702 61.1682 15.676 60.7256 16.0835C59.3269 17.3782 57.7512 17.9667 55.8746 17.6408C54.5999 17.4235 53.5553 17.1609 54.2723 15.341C54.5999 14.5081 54.6087 13.4126 53.5553 12.3261C52.7144 15.2505 51.1918 17.351 48.2086 17.9576C45.3937 18.528 42.8885 17.7403 40.5427 16.2012V16.1921Z" fill="#100C09"/>
<path d="M32.9034 64.0867C33.4788 64.0595 34.3905 63.5706 34.4171 64.5394C34.4348 65.2366 33.4965 64.9197 32.9742 65.0102C31.7083 64.802 32.7352 64.4036 32.9034 64.0776V64.0867Z" fill="white"/>
<path d="M70.3216 27.4452C69.1796 27.1464 69.3478 26.0961 69.1177 25.2632C70.1091 24.4755 71.1006 25.064 71.5786 25.7249C72.6674 27.246 70.6314 26.7571 70.3216 27.4361V27.4452Z" fill="white"/>
<path d="M24.4585 19.4236C24.8391 20.6731 25.8659 21.995 24.069 22.9909C23.2811 24.9013 21.7497 23.9053 20.4838 23.9416C20.1917 23.6156 19.8908 23.2987 19.5986 22.9728C20.2271 21.7324 21.2451 20.7727 22.511 20.5916C23.4493 20.4558 23.529 19.2697 24.4585 19.4146V19.4236Z" fill="white"/>
<path d="M20.4922 23.9421C21.705 23.6977 23.1213 24.2681 24.0774 22.9824C24.2279 25.0377 25.4317 26.5044 26.6622 27.9712C26.9543 29.8363 28.9992 31.0133 28.707 33.3583C27.2818 32.6883 27.1225 31.2668 26.3878 30.3161C25.8566 29.619 25.4583 28.7679 25.1839 27.9259C24.4137 25.5719 23.1036 23.9784 20.4834 23.9421H20.4922Z" fill="white"/>
<path d="M27.6096 26.9934C26.6359 25.8164 25.6002 24.6485 26.7332 22.9916C28.1584 22.8558 28.8312 23.7974 29.203 24.9563C29.6456 26.3506 29.3358 27.2922 27.6096 26.9934Z" fill="white"/>
</svg>
