<svg width="48" height="48" viewBox="0 0 48 48" fill="none" xmlns="http://www.w3.org/2000/svg">
<g clip-path="url(#clip0_214_2784)">
<path d="M21 1C15.6957 1 10.6086 3.10714 6.85786 6.85786C3.10714 10.6086 1 15.6957 1 21V38C1 40.3869 1.94821 42.6761 3.63604 44.364C5.32387 46.0518 7.61305 47 10 47C12.3869 47 14.6761 46.0518 16.364 44.364C18.0518 42.6761 19 40.3869 19 38C19 35.6131 19.9482 33.3239 21.636 31.636C23.3239 29.9482 25.6131 29 28 29H33C36.713 29 40.274 27.525 42.8995 24.8995C45.525 22.274 47 18.713 47 15C47 11.287 45.525 7.72601 42.8995 5.10051C40.274 2.475 36.713 1 33 1H21Z" stroke="#C19F74" stroke-width="2" stroke-linecap="round" stroke-linejoin="round"/>
<path d="M22.9998 7C18.7563 7 14.6866 8.68571 11.6861 11.6863C8.68548 14.6869 6.99977 18.7565 6.99977 23V26C6.89381 27.4529 7.35577 28.8903 8.2884 30.0095C9.22102 31.1286 10.5515 31.8422 11.9998 32C15.9998 32 12.2358 23 25.9998 23H32.9998C35.1215 23 37.1563 22.1571 38.6566 20.6569C40.1569 19.1566 40.9998 17.1217 40.9998 15C40.9998 12.8783 40.1569 10.8434 38.6566 9.34315C37.1563 7.84285 35.1215 7 32.9998 7H22.9998Z" stroke="#C19F74" stroke-width="2" stroke-linecap="round" stroke-linejoin="round"/>
<path d="M8 38C8 38.5304 8.21071 39.0391 8.58579 39.4142C8.96086 39.7893 9.46957 40 10 40C10.5304 40 11.0391 39.7893 11.4142 39.4142C11.7893 39.0391 12 38.5304 12 38C12 37.4696 11.7893 36.9609 11.4142 36.5858C11.0391 36.2107 10.5304 36 10 36C9.46957 36 8.96086 36.2107 8.58579 36.5858C8.21071 36.9609 8 37.4696 8 38Z" stroke="#C19F74" stroke-width="2" stroke-linecap="round" stroke-linejoin="round"/>
</g>
<defs>
<clipPath id="clip0_214_2784">
<rect width="48" height="48" fill="white"/>
</clipPath>
</defs>
</svg>
