<svg xmlns="http://www.w3.org/2000/svg" width="46" height="46" fill="none"><path stroke="#C19F74" stroke-linecap="round" stroke-linejoin="round" stroke-width="3" d="M2.297 22.348a4.95 4.95 0 0 1 .718-2.175c.898-1.47 2.704-4.284 4.712-6.627 0 0-.08-3.191-.135-6.358a4.84 4.84 0 0 1 4.648-4.94C15.2 2.126 19.174 2 23 2s7.799.126 10.76.248a4.84 4.84 0 0 1 4.647 4.94q-.057 3.18-.134 6.358c2.009 2.343 3.814 5.157 4.712 6.628.405.662.652 1.399.717 2.173.194 2.3.52 8.043.076 17.599a3.91 3.91 0 0 1-3.765 3.728C36.273 43.814 29.982 44 23 44s-13.273-.186-17.013-.326a3.91 3.91 0 0 1-3.765-3.728c-.443-9.555-.118-15.299.075-17.598"/><path stroke="#C19F74" stroke-linecap="round" stroke-width="3" d="M26.999 22.334a13 13 0 0 0-.78 2.677C25.67 28.07 27.933 31 31.043 31c3.09 0 5.275-2.96 4.648-5.987a13.6 13.6 0 0 0-.96-2.938C34.08 20.672 32.588 20 31.042 20c-1.717 0-3.384.748-4.044 2.334z"/><path stroke="#C19F74" stroke-linecap="round" stroke-linejoin="round" stroke-width="3" d="M14.01 9.905c.034-1.04.843-1.722 1.883-1.773C17.213 8.067 19.442 8 23 8s5.787.067 7.107.132c1.04.051 1.849.733 1.883 1.773q.02.595 0 1.19c-.035 1.04-.843 1.722-1.883 1.773-1.32.065-3.55.132-7.107.132s-5.787-.067-7.107-.132c-1.04-.051-1.85-.733-1.884-1.773a18 18 0 0 1 0-1.19zM15 20v18M31 31v7M10.5 20l-.307 5.995c-.108 2.108 1.442 3.932 3.552 3.988q1.256.033 2.51 0c2.11-.056 3.66-1.88 3.553-3.987L19.5 20"/></svg>