<svg xmlns="http://www.w3.org/2000/svg" width="48" height="48" fill="none"><path stroke="#C19F74" stroke-linecap="round" stroke-linejoin="round" stroke-width="3" d="M3.514 10.617c.213-2.204 1.84-3.84 4.044-4.047C10.5 6.292 15.594 6 24 6s13.5.292 16.442.57c2.204.208 3.831 1.843 4.044 4.047C44.741 13.255 45 17.529 45 24c0 6.472-.26 10.746-.514 13.383-.213 2.204-1.84 3.84-4.044 4.047C37.5 41.708 32.407 42 24 42s-13.5-.292-16.442-.57c-2.205-.208-3.831-1.843-4.044-4.047C3.26 34.745 3 30.471 3 24c0-6.472.26-10.746.514-13.383"/><path stroke="#C19F74" stroke-linecap="round" stroke-linejoin="round" stroke-width="3" d="M8.162 33.32c.06 1.366 1.09 2.422 2.457 2.492 1.814.093 4.89.188 9.881.188 4.99 0 8.067-.095 9.881-.188 1.367-.07 2.397-1.126 2.457-2.493.08-1.799.162-4.768.162-9.319s-.083-7.52-.162-9.32c-.06-1.366-1.09-2.422-2.457-2.492-1.814-.093-4.89-.188-9.881-.188-4.99 0-8.067.095-9.881.188-1.367.07-2.396 1.126-2.457 2.493C8.082 16.48 8 19.449 8 24s.083 7.52.162 9.32M40 16h-2M40 32h-2M40 21h-2"/></svg>